<svg xmlns="http://www.w3.org/2000/svg" xmlns:xlink="http://www.w3.org/1999/xlink" xmlns:lucid="lucid" width="7360.5" height="2181"><g transform="translate(-200 -519.5)" lucid:page-tab-id="0_0"><path d="M222.8 1425.3a11.36 11.36 0 0 1 0-10.6l459.4-869.4a9.96 9.96 0 0 1 8.8-5.3h918a9.96 9.96 0 0 1 8.8 5.3l459.4 869.4a11.36 11.36 0 0 1 0 10.6l-459.4 869.4a9.96 9.96 0 0 1-8.8 5.3H691a9.96 9.96 0 0 1-8.8-5.3z" stroke="#3a414a" fill="#fff"/><path d="M1005 946a6 6 0 0 1 6-6h278a6 6 0 0 1 6 6v88a6 6 0 0 1-6 6h-278a6 6 0 0 1-6-6z" stroke="#000" stroke-opacity="0" fill="#fff" fill-opacity="0"/><use xlink:href="#a" transform="matrix(1,0,0,1,1010,945) translate(6.777777777777999 63.9999999999999)"/><use xlink:href="#b" transform="matrix(1,0,0,1,1010,945) translate(140 159.99999999999977)"/><path d="M890 1581.7v107.85l260 139.52V1721.2l-260-139.5zM890 1747.56v107.86l260 139.5V1887.1l-260-139.52z" stroke="#000" stroke-opacity="0" fill="#aecbfa"/><path d="M1150 1829.07l260-139.52V1581.7l-260 139.5v107.87zM1150 1994.93l260-139.5v-107.87l-260 139.52v107.85z" stroke="#000" stroke-opacity="0" fill="#669df6"/><path d="M1410 1527.37V1419.5L1150 1280v107.85l260 139.52z" stroke="#000" stroke-opacity="0" fill="#4285f4"/><path d="M1150 1280l-260 139.5v107.87l260-139.52V1280z" stroke="#000" stroke-opacity="0" fill="#669df6"/><path d="M890 1418.7v107.85l260 139.5v-107.84l-260-139.5z" stroke="#000" stroke-opacity="0" fill="#aecbfa"/><path d="M1150 1666.06l260-139.5V1418.7l-260 139.5v107.86z" stroke="#000" stroke-opacity="0" fill="#669df6"/><path d="M1150 1280l-260 155.14v403.93l260.52 155.86L1410 1839.07v-403.2z" stroke="#000" stroke-opacity="0" stroke-width=".01" fill-opacity="0"/><use xlink:href="#c" transform="matrix(1,0,0,1,890,1999.9301825993557) translate(205.74074074074076 17.77777777777778)"/><use xlink:href="#d" transform="matrix(1,0,0,1,890,1999.9301825993557) translate(269.81481481481484 17.77777777777778)"/><path d="M2084.24 1424.24a6 6 0 0 1 0-8.48l171.52-171.52a2.48 2.48 0 0 1 4.24 1.76v78a6 6 0 0 0 6 6h268a6 6 0 0 0 6-6v-78a2.48 2.48 0 0 1 4.24-1.76l171.52 171.52a6 6 0 0 1 0 8.48l-171.52 171.52a2.48 2.48 0 0 1-4.24-1.76v-78a6 6 0 0 0-6-6h-268a6 6 0 0 0-6 6v78a2.48 2.48 0 0 1-4.24 1.76z" stroke="#3a414a" fill="#fff"/><path d="M2510 1421.08l-46.43 46.38-11.93-12.06 26.1-25.88h-85.88v-16.88h85.9l-26.12-26.06 11.93-11.88 46.43 46.38z" stroke="#000" stroke-opacity="0" fill="#4285f4"/><path d="M2397.44 1329.77l3.44 3.33v10.58l-3.44 3.33c-24.4 1.16-44.13 17.83-49.23 41.62l-1.43 5.75-5.88.46c-18.4 1.15-32.83 15.4-33.82 33.7-.1 1.6-.1 2.97 0 4.58l-13.97 11.62c-2.1-5.5-3.1-10.7-3.1-16.66.9-24.84 18.74-45.07 43.47-49.1 8.53-29.08 33.7-48.28 63.97-49.2z" stroke="#000" stroke-opacity="0" fill="#aecbfa"/><path d="M2422.68 1472.3h-86.05l26.16 26.06-11.96 11.87-46.52-46.38 46.52-46.38 11.95 12.06-26.17 25.88h86.05v16.9z" stroke="#000" stroke-opacity="0" fill="#4285f4"/><path d="M2452.36 1360.4l-12.38 11.23c-8.93-15.82-24.2-25-42.4-25.5v-16.36c23 .4 42.45 11.3 54.78 30.64z" stroke="#000" stroke-opacity="0" fill="#669df6"/><path d="M2290 1329.77v144.37h220v-144.37z" stroke="#000" stroke-opacity="0" fill-opacity="0"/><use xlink:href="#e" transform="matrix(1,0,0,1,2290,1515.234375) translate(42.623456790123456 17.77777777777778)"/><use xlink:href="#f" transform="matrix(1,0,0,1,2290,1515.234375) translate(95.64814814814815 17.77777777777778)"/><path d="M1500 1146a6 6 0 0 1 6-6h448a6 6 0 0 1 6 6v548a6 6 0 0 1-6 6h-448a6 6 0 0 1-6-6z" fill="none"/><path d="M1500 1700c5.52 0 10-4.48 10-10v-260c0-5.52 4.48-10 10-10-5.52 0-10-4.48-10-10v-260c0-5.52-4.48-10-10-10" stroke="#3a414a" stroke-width="4" fill="none"/><use xlink:href="#g" transform="matrix(1,0,0,1,1535,1145) translate(4.88888888888889 196.7777777777778)"/><use xlink:href="#h" transform="matrix(1,0,0,1,1535,1145) translate(22.22222222222222 196.7777777777778)"/><use xlink:href="#i" transform="matrix(1,0,0,1,1535,1145) translate(237.13580246913568 196.7777777777778)"/><use xlink:href="#g" transform="matrix(1,0,0,1,1535,1145) translate(4.88888888888889 239.44444444444446)"/><use xlink:href="#j" transform="matrix(1,0,0,1,1535,1145) translate(22.22222222222222 239.44444444444446)"/><use xlink:href="#k" transform="matrix(1,0,0,1,1535,1145) translate(237.3333333333332 239.44444444444446)"/><use xlink:href="#g" transform="matrix(1,0,0,1,1535,1145) translate(4.88888888888889 282.11111111111114)"/><use xlink:href="#l" transform="matrix(1,0,0,1,1535,1145) translate(22.22222222222222 282.11111111111114)"/><use xlink:href="#m" transform="matrix(1,0,0,1,1535,1145) translate(248.98765432098756 282.11111111111114)"/><use xlink:href="#g" transform="matrix(1,0,0,1,1535,1145) translate(4.88888888888889 324.7777777777778)"/><use xlink:href="#n" transform="matrix(1,0,0,1,1535,1145) translate(22.22222222222222 324.7777777777778)"/><use xlink:href="#o" transform="matrix(1,0,0,1,1535,1145) translate(239.111111111111 324.7777777777778)"/><use xlink:href="#g" transform="matrix(1,0,0,1,1535,1145) translate(4.88888888888889 367.44444444444446)"/><use xlink:href="#p" transform="matrix(1,0,0,1,1535,1145) translate(22.22222222222222 367.44444444444446)"/><use xlink:href="#q" transform="matrix(1,0,0,1,1535,1145) translate(244.83950617283935 367.44444444444446)"/><path d="M2720 1096.4a14.6 14.6 0 0 1 4.22-10.27l496.16-501.86a14.37 14.37 0 0 1 10.22-4.27h718.8a14.37 14.37 0 0 1 10.22 4.27l496.16 501.86a14.6 14.6 0 0 1 4.22 10.27v727.2a14.6 14.6 0 0 1-4.22 10.27l-496.16 501.86a14.37 14.37 0 0 1-10.22 4.27h-718.8a14.37 14.37 0 0 1-10.22-4.27l-496.16-501.86a14.6 14.6 0 0 1-4.22-10.27z" stroke="#3a414a" fill="#fff"/><path d="M3244.9 1233.68c-42.1 0-88.04 41.98-88.04 84.42V1690h88.05v-172.5h84.45V1690h84.2v-371.9c0-42.44-42.1-84.42-88.05-84.42h-80.6zm0 195.76V1314h84.45v115.44h-84.44zM3563.04 1230c-45.94 0-88.04 42.32-88.04 84.18V1690h84.2v-172.5h84.44c42.1 0 88.04-42.32 88.04-84.18v-115c0-42.32-42.1-84.64-88.04-84.64h-80.6V1230zm-3.85 199.18v-115h84.44v115h-84.45zM3877.64 1318.1v287.48h-88V1690H4050v-84.42h-84.36V1318.1H4050v-84.42h-260.36v84.42h88z" stroke="#000" stroke-opacity="0" fill="#5c86df"/><path d="M3245 1517.78v-88.14h57.5l-57.5 88.14zM3559.64 1517.78v-88.14h49.86l-49.86 88.14zM3877.96 1375.82v-57.5h88.14l-88.14 57.5z" stroke="#000" stroke-opacity="0" fill="#2f67d7"/><path d="M3130 1184v552h920v-552z" stroke="#000" stroke-opacity="0" fill-opacity="0"/><use xlink:href="#r" transform="matrix(1,0,0,1,3130,1925) translate(389.8487654320988 30.222222222222214)"/><path d="M2720 1314.33a6 6 0 0 1 6-6h308a6 6 0 0 1 6 6v211.34a6 6 0 0 1-6 6h-308a6 6 0 0 1-6-6z" stroke="#000" stroke-opacity="0" fill="#fff" fill-opacity="0"/><use xlink:href="#s" transform="matrix(1,0,0,1,2725,1313.3333333333335) translate(23.049382716049422 68.56944444444443)"/><use xlink:href="#t" transform="matrix(1,0,0,1,2725,1313.3333333333335) translate(92.08641975308643 68.56944444444443)"/><use xlink:href="#u" transform="matrix(1,0,0,1,2725,1313.3333333333335) translate(60.43209876543213 111.23611111111109)"/><use xlink:href="#v" transform="matrix(1,0,0,1,2725,1313.3333333333335) translate(166.7037037037037 111.23611111111109)"/><use xlink:href="#w" transform="matrix(1,0,0,1,2725,1313.3333333333335) translate(10.061728395061778 153.90277777777774)"/><use xlink:href="#x" transform="matrix(1,0,0,1,2725,1313.3333333333335) translate(195.44444444444443 153.90277777777774)"/><path d="M4460 642a6 6 0 0 1 6-6h628a6 6 0 0 1 6 6v436a6 6 0 0 1-6 6h-628a6 6 0 0 1-6-6z" stroke="#3a414a" fill="#fff"/><path d="M4785.44 656c11.52 0 21.12 6.4 28.8 16.96 6.4 8.64 12.16 20.48 16.64 35.2 8.96 28.48 14.08 66.88 14.08 107.84 0 40.96-5.12 79.36-14.08 107.84-4.48 14.72-10.24 26.56-16.64 35.2-7.68 10.56-17.28 16.96-28.8 16.96-25.92 0-41.92-22.72-50.56-61.12-.32-1.28-.32-2.56 0-3.52h25.92c3.52 15.36 8 30.72 12.8 35.84 3.2 3.52 6.72 4.8 11.84 4.8.32 0 .32 0 .64-.32.32 0 .64-.32 1.28-.64 1.6-.96 3.52-2.88 5.44-5.44 4.48-6.4 8.96-16 13.12-28.48 8-26.24 12.8-62.4 12.8-101.12 0-38.72-4.8-74.88-12.8-101.12-4.16-12.48-8.64-22.08-13.12-28.48-1.92-2.56-3.84-4.48-5.44-5.44-.64-.32-.96-.64-1.28-.64-.32-.32-.32-.32-.64-.32-4.16 0-8 2.24-11.84 7.36-5.44 7.04-9.92 18.24-13.44 34.24h-26.56c4.16-21.44 10.24-37.12 18.56-48 8.64-11.52 20.16-17.6 33.28-17.6zm3.52 199.68v24h-126.72c-6.72 0-12.16-5.44-12.16-12.16s5.44-11.84 12.16-11.84h126.72zm138.88-25.6c6.72 0 12.16 5.12 12.16 11.84s-5.44 12.16-12.16 12.16H4868c.96-8 1.6-16 2.24-24h57.6zm-138.88-25.6v24h-156.8c-6.72 0-12.16-5.44-12.16-12.16s5.44-11.84 12.16-11.84h156.8zm80-25.92l58.88.32c6.72 0 12.16 5.12 12.16 11.84 0 6.08-4.48 11.2-10.56 11.84l-1.6.32h-57.28c-.32-8.32-.96-16.32-1.6-24.32zm-80-25.28v24h-126.72c-6.72 0-12.16-5.44-12.16-12.16 0-6.08 4.8-11.2 10.56-11.84h128.32z" stroke="#000" stroke-opacity="0" fill="#4285f4"/><path d="M4620 752v128h320V752z" stroke="#000" stroke-opacity="0" fill-opacity="0"/><path d="M4780 656c17.66 0 32 71.68 32 160s-14.34 160-32 160-32-71.68-32-160 14.34-160 32-160z" fill-opacity="0"/><use xlink:href="#y" transform="matrix(1,0,0,1,4620,981) translate(81.1666666666667 31.99999999999999)"/><use xlink:href="#z" transform="matrix(1,0,0,1,4620,981) translate(-45.2222222222222 79.99999999999997)"/><path d="M4460 1842a6 6 0 0 1 6-6h628a6 6 0 0 1 6 6v436a6 6 0 0 1-6 6h-628a6 6 0 0 1-6-6z" stroke="#3a414a" fill="#fff"/><path d="M4780 1891.5c35.65-.6 66.47 12.3 92 38.6l23-24.17c-63.48-66.6-166.52-66.6-230 0l23 24.15c25.53-26.3 56.35-39.2 92-38.6zM4780 2161.92c-35.65.6-66.47-12.3-92-38.6l-23 24.15c63.48 66.6 166.52 66.6 230 0l-23-24.15c-25.53 26.3-56.35 39.2-92 38.6z" stroke="#000" stroke-opacity="0" fill="#4285f4"/><path d="M4780 2100.6c-33.12.3-61.18-22.52-69-56.47h-89.24v57.38l-71.76-74.95 71.76-74.66v57.38H4711c7.82-33.95 35.88-56.8 69-56.48 33.12-.3 61.18 22.53 69 56.48h90.16v-57.7l70.84 74.97-71.3 75.26v-57.67H4849c-7.82 33.95-35.88 56.78-69 56.48zm0-112.8c-20.24 0-36.8 17.27-36.8 38.75s16.56 38.9 36.8 38.9 37.26-17.42 37.26-38.9c0-21.48-17.02-38.75-37.26-38.75z" stroke="#000" stroke-opacity="0" fill="#669df6"/><path d="M4780 1856c88.87 0 161 76.47 161 170.7 0 94.23-72.13 170.7-161 170.7s-161-76.47-161-170.7c0-94.23 72.13-170.7 161-170.7z" fill-opacity="0"/><g><use xlink:href="#A" transform="matrix(1,0,0,1,4550,2202.40625) translate(159.97530864197535 28.444444444444436)"/><use xlink:href="#B" transform="matrix(1,0,0,1,4550,2202.40625) translate(61.30864197530872 71.11111111111109)"/></g><g><path d="M6400 795a6 6 0 0 1-6 6H5205a6 6 0 0 0-6 6v43a2.3 2.3 0 0 1-4 1.54l-91-101.08a6.67 6.67 0 0 1 0-8.92l91-101.08a2.3 2.3 0 0 1 4 1.54v43a6 6 0 0 0 6 6h1189a6 6 0 0 1 6 6z" stroke="#3a414a" fill="#fff"/></g><path d="M5100 889a6 6 0 0 1 6-6h1167.4a6 6 0 0 0 6-6v-55a2.3 2.3 0 0 1 4-1.54L6396 945.54a6.67 6.67 0 0 1 0 8.92l-112.6 125.08a2.3 2.3 0 0 1-4-1.54v-55a6 6 0 0 0-6-6H5106a6 6 0 0 1-6-6z" stroke="#3a414a" fill="#fff"/><path d="M5430 711.33a6 6 0 0 1 6-6h628a6 6 0 0 1 6 6V784a6 6 0 0 1-6 6h-628a6 6 0 0 1-6-6z" stroke="#000" stroke-opacity="0" fill="#fff" fill-opacity="0"/><g><use xlink:href="#C" transform="matrix(1,0,0,1,5435,710.3333333333334) translate(261.2746913580247 25.454861111111104)"/><use xlink:href="#D" transform="matrix(1,0,0,1,5435,710.3333333333334) translate(162.00925925925932 60.12152777777776)"/><use xlink:href="#E" transform="matrix(1,0,0,1,5435,710.3333333333334) translate(333.4969135802469 60.12152777777776)"/><use xlink:href="#F" transform="matrix(1,0,0,1,5435,710.3333333333334) translate(352.7561728395061 60.12152777777776)"/><use xlink:href="#G" transform="matrix(1,0,0,1,5435,710.3333333333334) translate(418.39814814814815 60.12152777777776)"/></g><path d="M5630 895a6 6 0 0 1 6-6h228a6 6 0 0 1 6 6v110a6 6 0 0 1-6 6h-228a6 6 0 0 1-6-6z" stroke="#000" stroke-opacity="0" fill="#fff" fill-opacity="0"/><g><use xlink:href="#H" transform="matrix(1,0,0,1,5635,894) translate(7.549382716049422 44.1111111111111)"/><use xlink:href="#I" transform="matrix(1,0,0,1,5635,894) translate(145.49382716049382 44.1111111111111)"/><use xlink:href="#J" transform="matrix(1,0,0,1,5635,894) translate(45.225308641975346 78.77777777777776)"/><use xlink:href="#K" transform="matrix(1,0,0,1,5635,894) translate(131.81172839506172 78.77777777777776)"/></g><path d="M7220 540c176.73 0 320 143.27 320 320s-143.27 320-320 320h-500c-176.73 0-320-143.27-320-320s143.27-320 320-320z" stroke="#3a414a" fill="#fff"/><g><use xlink:href="#L" transform="matrix(1,0,0,1,6405,545) translate(494.81481481481484 321.02430555555554)"/></g><path d="M6500 662a6 6 0 0 1 6-6h248a6 6 0 0 1 6 6v408a6 6 0 0 1-6 6h-248a6 6 0 0 1-6-6z" fill="none"/><path d="M6500 1076c5.52 0 10-4.48 10-10V876c0-5.52 4.48-10 10-10-5.52 0-10-4.48-10-10V666c0-5.52-4.48-10-10-10" stroke="#3a414a" stroke-width="4" fill="none"/><g><use xlink:href="#M" transform="matrix(1,0,0,1,6535,661) translate(0 212.11111111111111)"/><use xlink:href="#N" transform="matrix(1,0,0,1,6535,661) translate(122.27160493827158 212.11111111111111)"/></g><path d="M5420 1506a6 6 0 0 1 6-6h1268a6 6 0 0 1 6 6v1174c-213.76-197.06-346.88-197.06-427.52-197.06-128 0-298.24 197.06-426.24 197.06-79.36 0-213.76 0-426.24-197.06z" stroke="#3a414a" fill="#fff"/><g><use xlink:href="#O" transform="matrix(1,0,0,1,5425.000000000001,1505) translate(478.37345679012356 496.4548611111111)"/></g><path d="M6060 1483.12V1346a6 6 0 0 1 6-6h898a6 6 0 0 0 6-6v-137.12" stroke="#3a414a" fill="none"/><path d="M6060 1497.88l-4.64-14.26h9.28z" stroke="#3a414a" fill="#fff"/><path d="M6970 1182.12l4.64 14.26h-9.28z" stroke="#3a414a" fill="#3a414a"/><g fill="none"><path d="M7234 956a6 6 0 0 1 6 6v168a6 6 0 0 1-6 6h-528a6 6 0 0 1-6-6V962a6 6 0 0 1 6-6z"/><path d="M6700 1136c0-5.52 4.48-10 10-10h250c5.52 0 10-4.48 10-10 0 5.52 4.48 10 10 10h250c5.52 0 10 4.48 10 10" stroke="#3a414a"/></g><path d="M6680 962a6 6 0 0 1 6-6h568a6 6 0 0 1 6 6v148a6 6 0 0 1-6 6h-568a6 6 0 0 1-6-6z" stroke="#000" stroke-opacity="0" fill="#fff" fill-opacity="0"/><g><use xlink:href="#P" transform="matrix(1,0,0,1,6685,961) translate(99.1234567901235 80.00694444444443)"/><use xlink:href="#Q" transform="matrix(1,0,0,1,6685,961) translate(371.12345679012344 80.00694444444443)"/><use xlink:href="#R" transform="matrix(1,0,0,1,6685,961) translate(401.7407407407407 80.00694444444443)"/></g><g transform="matrix(1,0,0,1,6685,961)"><a xlink:href="http://table.innerHTML" target="_blank"><path class="lucid-link lucid-hotspot lucid-overlay-hotspot" fill-opacity="0" d="M99.12 51.56h262.12v42.67H99.12z"/></a></g><defs><path fill="#3a414a" d="M240 0l2-218c-23 76-54 145-80 218h-23L58-218 59 0H30v-248h44l77 211c21-75 51-140 76-211h43V0h-30" id="S"/><path fill="#3a414a" d="M179-190L93 31C79 59 56 82 12 73V49c39 6 53-20 64-50L1-190h34L92-34l54-156h33" id="T"/><path fill="#3a414a" d="M185-189c-5-48-123-54-124 2 14 75 158 14 163 119 3 78-121 87-175 55-17-10-28-26-33-46l33-7c5 56 141 63 141-1 0-78-155-14-162-118-5-82 145-84 179-34 5 7 8 16 11 25" id="U"/><path fill="#3a414a" d="M140-251c81 0 123 46 123 126C263-53 228-8 163 1c7 30 30 48 69 40v23c-55 16-95-15-103-61C56-3 17-48 17-125c0-80 42-126 123-126zm0 227c63 0 89-41 89-101s-29-99-89-99c-61 0-89 39-89 99S79-25 140-24" id="V"/><path fill="#3a414a" d="M30 0v-248h33v221h125V0H30" id="W"/><g id="a"><use transform="matrix(0.22222222222222188,0,0,0.22222222222222188,0,0)" xlink:href="#S"/><use transform="matrix(0.22222222222222188,0,0,0.22222222222222188,66.44444444444434,0)" xlink:href="#T"/><use transform="matrix(0.22222222222222188,0,0,0.22222222222222188,106.44444444444429,0)" xlink:href="#U"/><use transform="matrix(0.22222222222222188,0,0,0.22222222222222188,159.77777777777754,0)" xlink:href="#V"/><use transform="matrix(0.22222222222222188,0,0,0.22222222222222188,221.99999999999966,0)" xlink:href="#W"/></g><path fill="#3a414a" d="M212-179c-10-28-35-45-73-45-59 0-87 40-87 99 0 60 29 101 89 101 43 0 62-24 78-52l27 14C228-24 195 4 139 4 59 4 22-46 18-125c-6-104 99-153 187-111 19 9 31 26 39 46" id="X"/><path fill="#3a414a" d="M24 0v-261h32V0H24" id="Y"/><path fill="#3a414a" d="M100-194c62-1 85 37 85 99 1 63-27 99-86 99S16-35 15-95c0-66 28-99 85-99zM99-20c44 1 53-31 53-75 0-43-8-75-51-75s-53 32-53 75 10 74 51 75" id="Z"/><path fill="#3a414a" d="M84 4C-5 8 30-112 23-190h32v120c0 31 7 50 39 49 72-2 45-101 50-169h31l1 190h-30c-1-10 1-25-2-33-11 22-28 36-60 37" id="aa"/><path fill="#3a414a" d="M85-194c31 0 48 13 60 33l-1-100h32l1 261h-30c-2-10 0-23-3-31C134-8 116 4 85 4 32 4 16-35 15-94c0-66 23-100 70-100zm9 24c-40 0-46 34-46 75 0 40 6 74 45 74 42 0 51-32 51-76 0-42-9-74-50-73" id="ab"/><g id="c"><use transform="matrix(0.06172839506172839,0,0,0.06172839506172839,0,0)" xlink:href="#X"/><use transform="matrix(0.06172839506172839,0,0,0.06172839506172839,15.987654320987653,0)" xlink:href="#Y"/><use transform="matrix(0.06172839506172839,0,0,0.06172839506172839,20.864197530864196,0)" xlink:href="#Z"/><use transform="matrix(0.06172839506172839,0,0,0.06172839506172839,33.20987654320987,0)" xlink:href="#aa"/><use transform="matrix(0.06172839506172839,0,0,0.06172839506172839,45.55555555555555,0)" xlink:href="#ab"/></g><g id="d"><use transform="matrix(0.06172839506172839,0,0,0.06172839506172839,0,0)" xlink:href="#U"/><use transform="matrix(0.06172839506172839,0,0,0.06172839506172839,14.814814814814813,0)" xlink:href="#V"/><use transform="matrix(0.06172839506172839,0,0,0.06172839506172839,32.09876543209876,0)" xlink:href="#W"/></g><path fill="#3a414a" d="M30-248c118-7 216 8 213 122C240-48 200 0 122 0H30v-248zM63-27c89 8 146-16 146-99s-60-101-146-95v194" id="ac"/><path fill="#3a414a" d="M141-36C126-15 110 5 73 4 37 3 15-17 15-53c-1-64 63-63 125-63 3-35-9-54-41-54-24 1-41 7-42 31l-33-3c5-37 33-52 76-52 45 0 72 20 72 64v82c-1 20 7 32 28 27v20c-31 9-61-2-59-35zM48-53c0 20 12 33 32 33 41-3 63-29 60-74-43 2-92-5-92 41" id="ad"/><path fill="#3a414a" d="M59-47c-2 24 18 29 38 22v24C64 9 27 4 27-40v-127H5v-23h24l9-43h21v43h35v23H59v120" id="ae"/><g id="e"><use transform="matrix(0.06172839506172839,0,0,0.06172839506172839,0,0)" xlink:href="#ac"/><use transform="matrix(0.06172839506172839,0,0,0.06172839506172839,15.987654320987653,0)" xlink:href="#ad"/><use transform="matrix(0.06172839506172839,0,0,0.06172839506172839,28.333333333333332,0)" xlink:href="#ae"/><use transform="matrix(0.06172839506172839,0,0,0.06172839506172839,34.50617283950617,0)" xlink:href="#ad"/></g><path fill="#3a414a" d="M127-220V0H93v-220H8v-28h204v28h-85" id="af"/><path fill="#3a414a" d="M114-163C36-179 61-72 57 0H25l-1-190h30c1 12-1 29 2 39 6-27 23-49 58-41v29" id="ag"/><path fill="#3a414a" d="M117-194c89-4 53 116 60 194h-32v-121c0-31-8-49-39-48C34-167 62-67 57 0H25l-1-190h30c1 10-1 24 2 32 11-22 29-35 61-36" id="ah"/><path fill="#3a414a" d="M135-143c-3-34-86-38-87 0 15 53 115 12 119 90S17 21 10-45l28-5c4 36 97 45 98 0-10-56-113-15-118-90-4-57 82-63 122-42 12 7 21 19 24 35" id="ai"/><path fill="#3a414a" d="M101-234c-31-9-42 10-38 44h38v23H63V0H32v-167H5v-23h27c-7-52 17-82 69-68v24" id="aj"/><path fill="#3a414a" d="M100-194c63 0 86 42 84 106H49c0 40 14 67 53 68 26 1 43-12 49-29l28 8c-11 28-37 45-77 45C44 4 14-33 15-96c1-61 26-98 85-98zm52 81c6-60-76-77-97-28-3 7-6 17-6 28h103" id="ak"/><g id="f"><use transform="matrix(0.06172839506172839,0,0,0.06172839506172839,0,0)" xlink:href="#af"/><use transform="matrix(0.06172839506172839,0,0,0.06172839506172839,12.716049382716047,0)" xlink:href="#ag"/><use transform="matrix(0.06172839506172839,0,0,0.06172839506172839,20.061728395061728,0)" xlink:href="#ad"/><use transform="matrix(0.06172839506172839,0,0,0.06172839506172839,32.407407407407405,0)" xlink:href="#ah"/><use transform="matrix(0.06172839506172839,0,0,0.06172839506172839,44.75308641975308,0)" xlink:href="#ai"/><use transform="matrix(0.06172839506172839,0,0,0.06172839506172839,55.86419753086419,0)" xlink:href="#aj"/><use transform="matrix(0.06172839506172839,0,0,0.06172839506172839,62.03703703703703,0)" xlink:href="#ak"/><use transform="matrix(0.06172839506172839,0,0,0.06172839506172839,74.38271604938271,0)" xlink:href="#ag"/></g><path fill="#3a414a" d="M63-170c30 0 51 21 51 51 0 31-20 52-51 52s-52-21-52-52 21-51 52-51" id="al"/><use transform="matrix(0.0987654320987654,0,0,0.0987654320987654,0,0)" xlink:href="#al" id="g"/><path fill="#3a414a" d="M114-157C55-157 80-60 75 0H25v-261h50l-1 109c12-26 28-41 61-42 86-1 58 113 63 194h-50c-7-57 23-157-34-157" id="am"/><path fill="#3a414a" d="M110-194c64 0 96 36 96 99 0 64-35 99-97 99-61 0-95-36-95-99 0-62 34-99 96-99zm-1 164c35 0 45-28 45-65 0-40-10-65-43-65-34 0-45 26-45 65 0 36 10 65 43 65" id="an"/><path fill="#3a414a" d="M137-138c1-29-70-34-71-4 15 46 118 7 119 86 1 83-164 76-172 9l43-7c4 19 20 25 44 25 33 8 57-30 24-41C81-84 22-81 20-136c-2-80 154-74 161-7" id="ao"/><path fill="#3a414a" d="M115-3C79 11 28 4 28-45v-112H4v-33h27l15-45h31v45h36v33H77v99c-1 23 16 31 38 25v30" id="ap"/><path fill="#3a414a" d="M35-132v-50h50v50H35zM35 0v-49h50V0H35" id="aq"/><g id="h"><use transform="matrix(0.0987654320987654,0,0,0.0987654320987654,0,0)" xlink:href="#am"/><use transform="matrix(0.0987654320987654,0,0,0.0987654320987654,21.629629629629623,0)" xlink:href="#an"/><use transform="matrix(0.0987654320987654,0,0,0.0987654320987654,43.259259259259245,0)" xlink:href="#ao"/><use transform="matrix(0.0987654320987654,0,0,0.0987654320987654,63.01234567901233,0)" xlink:href="#ap"/><use transform="matrix(0.0987654320987654,0,0,0.0987654320987654,74.76543209876542,0)" xlink:href="#aq"/></g><path fill="#3a414a" d="M23 0v-37h61v-169l-59 37v-38l62-41h46v211h57V0H23" id="ar"/><path fill="#3a414a" d="M182-182c0 78-84 86-111 141h115V0H12c-6-101 99-100 120-180 1-22-12-31-33-32-23 0-32 14-35 34l-49-3c5-45 32-70 84-70 51 0 83 22 83 69" id="as"/><path fill="#3a414a" d="M52 0c1-96 47-148 87-207H15v-41h169v40c-36 62-79 113-81 208H52" id="at"/><path fill="#3a414a" d="M24 0v-54h51V0H24" id="au"/><path fill="#3a414a" d="M101-251c68 0 84 54 84 127C185-50 166 4 99 4S15-52 14-124c-1-75 17-127 87-127zm-1 216c37-5 36-46 36-89s4-89-36-89c-39 0-36 45-36 89 0 43-3 85 36 89" id="av"/><path fill="#3a414a" d="M35-132v-50h51v50H35zm51 83c1 42 0 83-19 105H34C46 42 56 24 58 0H35v-49h51" id="aw"/><g id="i"><use transform="matrix(0.0987654320987654,0,0,0.0987654320987654,0,0)" xlink:href="#ar"/><use transform="matrix(0.0987654320987654,0,0,0.0987654320987654,19.753086419753078,0)" xlink:href="#as"/><use transform="matrix(0.0987654320987654,0,0,0.0987654320987654,39.506172839506156,0)" xlink:href="#at"/><use transform="matrix(0.0987654320987654,0,0,0.0987654320987654,59.25925925925924,0)" xlink:href="#au"/><use transform="matrix(0.0987654320987654,0,0,0.0987654320987654,69.13580246913578,0)" xlink:href="#av"/><use transform="matrix(0.0987654320987654,0,0,0.0987654320987654,88.88888888888886,0)" xlink:href="#au"/><use transform="matrix(0.0987654320987654,0,0,0.0987654320987654,98.7654320987654,0)" xlink:href="#av"/><use transform="matrix(0.0987654320987654,0,0,0.0987654320987654,118.51851851851848,0)" xlink:href="#au"/><use transform="matrix(0.0987654320987654,0,0,0.0987654320987654,128.395061728395,0)" xlink:href="#ar"/><use transform="matrix(0.0987654320987654,0,0,0.0987654320987654,148.1481481481481,0)" xlink:href="#aw"/></g><path fill="#3a414a" d="M85 4C-2 5 27-109 22-190h50c7 57-23 150 33 157 60-5 35-97 40-157h50l1 190h-47c-2-12 1-28-3-38-12 25-28 42-61 42" id="ax"/><path fill="#3a414a" d="M185-48c-13 30-37 53-82 52C43 2 14-33 14-96s30-98 90-98c62 0 83 45 84 108H66c0 31 8 55 39 56 18 0 30-7 34-22zm-45-69c5-46-57-63-70-21-2 6-4 13-4 21h74" id="ay"/><path fill="#3a414a" d="M135-150c-39-12-60 13-60 57V0H25l-1-190h47c2 13-1 29 3 40 6-28 27-53 61-41v41" id="az"/><g id="j"><use transform="matrix(0.0987654320987654,0,0,0.0987654320987654,0,0)" xlink:href="#ax"/><use transform="matrix(0.0987654320987654,0,0,0.0987654320987654,21.629629629629623,0)" xlink:href="#ao"/><use transform="matrix(0.0987654320987654,0,0,0.0987654320987654,41.3827160493827,0)" xlink:href="#ay"/><use transform="matrix(0.0987654320987654,0,0,0.0987654320987654,61.13580246913578,0)" xlink:href="#az"/><use transform="matrix(0.0987654320987654,0,0,0.0987654320987654,74.96296296296293,0)" xlink:href="#aq"/></g><path fill="#3a414a" d="M88-194c31-1 46 15 58 34l-1-101h50l1 261h-48c-2-10 0-23-3-31C134-8 116 4 84 4 32 4 16-41 15-95c0-56 19-97 73-99zm17 164c33 0 40-30 41-66 1-37-9-64-41-64s-38 30-39 65c0 43 13 65 39 65" id="aA"/><path fill="#3a414a" d="M135-194c52 0 70 43 70 98 0 56-19 99-73 100-30 1-46-15-58-35L72 0H24l1-261h50v104c11-23 29-37 60-37zM114-30c31 0 40-27 40-66 0-37-7-63-39-63s-41 28-41 65c0 36 8 64 40 64" id="aB"/><path fill="#3a414a" d="M-4 44V30h207v14H-4" id="aC"/><g id="k"><use transform="matrix(0.0987654320987654,0,0,0.0987654320987654,0,0)" xlink:href="#aA"/><use transform="matrix(0.0987654320987654,0,0,0.0987654320987654,21.629629629629623,0)" xlink:href="#aB"/><use transform="matrix(0.0987654320987654,0,0,0.0987654320987654,43.259259259259245,0)" xlink:href="#aC"/><use transform="matrix(0.0987654320987654,0,0,0.0987654320987654,63.01234567901233,0)" xlink:href="#ax"/><use transform="matrix(0.0987654320987654,0,0,0.0987654320987654,84.64197530864195,0)" xlink:href="#ao"/><use transform="matrix(0.0987654320987654,0,0,0.0987654320987654,104.39506172839502,0)" xlink:href="#ay"/><use transform="matrix(0.0987654320987654,0,0,0.0987654320987654,124.14814814814811,0)" xlink:href="#az"/><use transform="matrix(0.0987654320987654,0,0,0.0987654320987654,137.97530864197526,0)" xlink:href="#aw"/></g><path fill="#3a414a" d="M135-194c53 0 70 44 70 98 0 56-19 98-73 100-31 1-45-17-59-34 3 33 2 69 2 105H25l-1-265h48c2 10 0 23 3 31 11-24 29-35 60-35zM114-30c33 0 39-31 40-66 0-38-9-64-40-64-56 0-55 130 0 130" id="aD"/><path fill="#3a414a" d="M133-34C117-15 103 5 69 4 32 3 11-16 11-54c-1-60 55-63 116-61 1-26-3-47-28-47-18 1-26 9-28 27l-52-2c7-38 36-58 82-57s74 22 75 68l1 82c-1 14 12 18 25 15v27c-30 8-71 5-69-32zm-48 3c29 0 43-24 42-57-32 0-66-3-65 30 0 17 8 27 23 27" id="aE"/><path fill="#3a414a" d="M231 0h-52l-39-155L100 0H48L-1-190h46L77-45c9-52 24-97 36-145h53l37 145 32-145h46" id="aF"/><g id="l"><use transform="matrix(0.0987654320987654,0,0,0.0987654320987654,0,0)" xlink:href="#aD"/><use transform="matrix(0.0987654320987654,0,0,0.0987654320987654,21.629629629629623,0)" xlink:href="#aE"/><use transform="matrix(0.0987654320987654,0,0,0.0987654320987654,41.3827160493827,0)" xlink:href="#ao"/><use transform="matrix(0.0987654320987654,0,0,0.0987654320987654,61.13580246913578,0)" xlink:href="#ao"/><use transform="matrix(0.0987654320987654,0,0,0.0987654320987654,80.88888888888886,0)" xlink:href="#aF"/><use transform="matrix(0.0987654320987654,0,0,0.0987654320987654,108.54320987654317,0)" xlink:href="#an"/><use transform="matrix(0.0987654320987654,0,0,0.0987654320987654,130.1728395061728,0)" xlink:href="#az"/><use transform="matrix(0.0987654320987654,0,0,0.0987654320987654,143.99999999999997,0)" xlink:href="#aA"/><use transform="matrix(0.0987654320987654,0,0,0.0987654320987654,165.6296296296296,0)" xlink:href="#aq"/></g><path fill="#3a414a" d="M86-200l42-18 12 35-44 11 32 37-32 21-26-44-26 44-32-21 33-37-44-11 12-35 42 18-3-48h38" id="aG"/><g id="m"><use transform="matrix(0.0987654320987654,0,0,0.0987654320987654,0,0)" xlink:href="#aG"/><use transform="matrix(0.0987654320987654,0,0,0.0987654320987654,13.827160493827156,0)" xlink:href="#aG"/><use transform="matrix(0.0987654320987654,0,0,0.0987654320987654,27.654320987654312,0)" xlink:href="#aG"/><use transform="matrix(0.0987654320987654,0,0,0.0987654320987654,41.48148148148147,0)" xlink:href="#aG"/><use transform="matrix(0.0987654320987654,0,0,0.0987654320987654,55.308641975308625,0)" xlink:href="#aG"/><use transform="matrix(0.0987654320987654,0,0,0.0987654320987654,69.13580246913578,0)" xlink:href="#aw"/></g><path fill="#3a414a" d="M135-194c87-1 58 113 63 194h-50c-7-57 23-157-34-157-59 0-34 97-39 157H25l-1-190h47c2 12-1 28 3 38 12-26 28-41 61-42" id="aH"/><path fill="#3a414a" d="M220-157c-53 9-28 100-34 157h-49v-107c1-27-5-49-29-50C55-147 81-57 75 0H25l-1-190h47c2 12-1 28 3 38 10-53 101-56 108 0 13-22 24-43 59-42 82 1 51 116 57 194h-49v-107c-1-25-5-48-29-50" id="aI"/><g id="n"><use transform="matrix(0.0987654320987654,0,0,0.0987654320987654,0,0)" xlink:href="#aA"/><use transform="matrix(0.0987654320987654,0,0,0.0987654320987654,21.629629629629623,0)" xlink:href="#aB"/><use transform="matrix(0.0987654320987654,0,0,0.0987654320987654,43.259259259259245,0)" xlink:href="#aC"/><use transform="matrix(0.0987654320987654,0,0,0.0987654320987654,63.01234567901233,0)" xlink:href="#aH"/><use transform="matrix(0.0987654320987654,0,0,0.0987654320987654,84.64197530864195,0)" xlink:href="#aE"/><use transform="matrix(0.0987654320987654,0,0,0.0987654320987654,104.39506172839502,0)" xlink:href="#aI"/><use transform="matrix(0.0987654320987654,0,0,0.0987654320987654,135.99999999999994,0)" xlink:href="#ay"/><use transform="matrix(0.0987654320987654,0,0,0.0987654320987654,155.75308641975303,0)" xlink:href="#aq"/></g><path fill="#3a414a" d="M190-63c-7 42-38 67-86 67-59 0-84-38-90-98-12-110 154-137 174-36l-49 2c-2-19-15-32-35-32-30 0-35 28-38 64-6 74 65 87 74 30" id="aJ"/><g id="o"><use transform="matrix(0.0987654320987654,0,0,0.0987654320987654,0,0)" xlink:href="#aJ"/><use transform="matrix(0.0987654320987654,0,0,0.0987654320987654,19.753086419753078,0)" xlink:href="#aE"/><use transform="matrix(0.0987654320987654,0,0,0.0987654320987654,39.506172839506156,0)" xlink:href="#az"/><use transform="matrix(0.0987654320987654,0,0,0.0987654320987654,53.333333333333314,0)" xlink:href="#ao"/><use transform="matrix(0.0987654320987654,0,0,0.0987654320987654,73.08641975308639,0)" xlink:href="#am"/><use transform="matrix(0.0987654320987654,0,0,0.0987654320987654,94.71604938271601,0)" xlink:href="#an"/><use transform="matrix(0.0987654320987654,0,0,0.0987654320987654,116.34567901234561,0)" xlink:href="#aD"/><use transform="matrix(0.0987654320987654,0,0,0.0987654320987654,137.97530864197526,0)" xlink:href="#aw"/></g><path fill="#3a414a" d="M20 75v-336h95v34H67V41h48v34H20" id="aK"/><path fill="#3a414a" d="M4 75V41h49v-268H4v-34h96V75H4" id="aL"/><g id="p"><use transform="matrix(0.0987654320987654,0,0,0.0987654320987654,0,0)" xlink:href="#aK"/><use transform="matrix(0.0987654320987654,0,0,0.0987654320987654,11.753086419753082,0)" xlink:href="#aD"/><use transform="matrix(0.0987654320987654,0,0,0.0987654320987654,33.38271604938271,0)" xlink:href="#an"/><use transform="matrix(0.0987654320987654,0,0,0.0987654320987654,55.01234567901233,0)" xlink:href="#az"/><use transform="matrix(0.0987654320987654,0,0,0.0987654320987654,68.83950617283948,0)" xlink:href="#ap"/><use transform="matrix(0.0987654320987654,0,0,0.0987654320987654,80.59259259259255,0)" xlink:href="#aL"/><use transform="matrix(0.0987654320987654,0,0,0.0987654320987654,92.34567901234564,0)" xlink:href="#aq"/></g><path fill="#3a414a" d="M128-127c34 4 56 21 59 58 7 91-148 94-172 28-4-9-6-17-7-26l51-5c1 24 16 35 40 36 23 0 39-12 38-36-1-31-31-36-65-34v-40c32 2 59-3 59-33 0-20-13-33-34-33s-33 13-35 32l-50-3c6-44 37-68 86-68 50 0 83 20 83 66 0 35-22 52-53 58" id="aM"/><path fill="#3a414a" d="M115-159c48 0 72 30 72 78 0 54-30 85-83 85-64 0-91-50-91-122 0-98 58-163 141-120 15 8 21 24 27 44l-47 6c-5-31-48-31-61-4-7 14-11 33-11 60 9-17 28-27 53-27zM102-35c24 0 36-20 36-45s-11-43-37-43c-23 0-36 14-36 38 0 27 11 50 37 50" id="aN"/><g id="q"><use transform="matrix(0.0987654320987654,0,0,0.0987654320987654,0,0)" xlink:href="#aM"/><use transform="matrix(0.0987654320987654,0,0,0.0987654320987654,19.753086419753078,0)" xlink:href="#aM"/><use transform="matrix(0.0987654320987654,0,0,0.0987654320987654,39.506172839506156,0)" xlink:href="#av"/><use transform="matrix(0.0987654320987654,0,0,0.0987654320987654,59.25925925925924,0)" xlink:href="#aN"/><use transform="matrix(0.0987654320987654,0,0,0.0987654320987654,79.01234567901231,0)" xlink:href="#aw"/></g><path fill="#3a414a" d="M76-208v77h127v40H76V0H24v-248h183v40H76" id="aO"/><path fill="#3a414a" d="M199 0l-22-63H83L61 0H9l90-248h61L250 0h-51zm-33-102l-36-108c-10 38-24 72-36 108h72" id="aP"/><path fill="#3a414a" d="M24-248c93 1 206-16 204 79-1 75-69 88-152 82V0H24v-248zm52 121c47 0 100 7 100-41 0-47-54-39-100-39v80" id="aQ"/><path fill="#3a414a" d="M24 0v-248h52V0H24" id="aR"/><g id="r"><use transform="matrix(0.10493827160493824,0,0,0.10493827160493824,0,0)" xlink:href="#aO"/><use transform="matrix(0.10493827160493824,0,0,0.10493827160493824,22.981481481481474,0)" xlink:href="#aE"/><use transform="matrix(0.10493827160493824,0,0,0.10493827160493824,43.969135802469125,0)" xlink:href="#ao"/><use transform="matrix(0.10493827160493824,0,0,0.10493827160493824,64.95679012345677,0)" xlink:href="#ap"/><use transform="matrix(0.10493827160493824,0,0,0.10493827160493824,77.44444444444441,0)" xlink:href="#aP"/><use transform="matrix(0.10493827160493824,0,0,0.10493827160493824,104.62345679012341,0)" xlink:href="#aQ"/><use transform="matrix(0.10493827160493824,0,0,0.10493827160493824,129.8086419753086,0)" xlink:href="#aR"/></g><path fill="#3a414a" d="M67-125c0 54 23 88 75 88 28 0 53-7 68-21v-34h-60v-39h108v91C232-14 192 4 140 4 58 4 20-42 15-125 8-236 126-280 215-234c19 10 29 26 37 47l-47 15c-11-23-29-39-63-39-53 1-75 33-75 86" id="aS"/><g id="s"><use transform="matrix(0.0987654320987654,0,0,0.0987654320987654,0,0)" xlink:href="#aS"/><use transform="matrix(0.0987654320987654,0,0,0.0987654320987654,27.654320987654312,0)" xlink:href="#ay"/><use transform="matrix(0.0987654320987654,0,0,0.0987654320987654,47.40740740740739,0)" xlink:href="#ap"/></g><path fill="#3a414a" d="M67-125c0 53 21 87 73 88 37 1 54-22 65-47l45 17C233-25 199 4 140 4 58 4 20-42 15-125 8-235 124-281 211-232c18 10 29 29 36 50l-46 12c-8-25-30-41-62-41-52 0-71 34-72 86" id="aT"/><path fill="#3a414a" d="M25-224v-37h50v37H25zM25 0v-190h50V0H25" id="aU"/><g id="t"><use transform="matrix(0.0987654320987654,0,0,0.0987654320987654,0,0)" xlink:href="#aT"/><use transform="matrix(0.0987654320987654,0,0,0.0987654320987654,25.58024691358024,0)" xlink:href="#an"/><use transform="matrix(0.0987654320987654,0,0,0.0987654320987654,47.20987654320986,0)" xlink:href="#aH"/><use transform="matrix(0.0987654320987654,0,0,0.0987654320987654,68.83950617283948,0)" xlink:href="#aH"/><use transform="matrix(0.0987654320987654,0,0,0.0987654320987654,90.4691358024691,0)" xlink:href="#ay"/><use transform="matrix(0.0987654320987654,0,0,0.0987654320987654,110.22222222222216,0)" xlink:href="#aJ"/><use transform="matrix(0.0987654320987654,0,0,0.0987654320987654,129.97530864197526,0)" xlink:href="#ap"/><use transform="matrix(0.0987654320987654,0,0,0.0987654320987654,141.72839506172835,0)" xlink:href="#aU"/><use transform="matrix(0.0987654320987654,0,0,0.0987654320987654,151.60493827160488,0)" xlink:href="#an"/><use transform="matrix(0.0987654320987654,0,0,0.0987654320987654,173.2345679012345,0)" xlink:href="#aH"/></g><path fill="#3a414a" d="M67-93c0 74 22 123 53 168H70C40 30 18-18 18-93s22-123 52-168h50c-32 44-53 94-53 168" id="aV"/><path fill="#3a414a" d="M76-54c-1 42 2 86-19 110H24C36 42 46 24 48 0H25v-54h51" id="aW"/><g id="u"><use transform="matrix(0.0987654320987654,0,0,0.0987654320987654,0,0)" xlink:href="#aV"/><use transform="matrix(0.0987654320987654,0,0,0.0987654320987654,11.753086419753082,0)" xlink:href="#am"/><use transform="matrix(0.0987654320987654,0,0,0.0987654320987654,33.38271604938271,0)" xlink:href="#an"/><use transform="matrix(0.0987654320987654,0,0,0.0987654320987654,55.01234567901233,0)" xlink:href="#ao"/><use transform="matrix(0.0987654320987654,0,0,0.0987654320987654,74.7654320987654,0)" xlink:href="#ap"/><use transform="matrix(0.0987654320987654,0,0,0.0987654320987654,86.51851851851848,0)" xlink:href="#aW"/></g><g id="v"><use transform="matrix(0.0987654320987654,0,0,0.0987654320987654,0,0)" xlink:href="#ax"/><use transform="matrix(0.0987654320987654,0,0,0.0987654320987654,21.629629629629623,0)" xlink:href="#ao"/><use transform="matrix(0.0987654320987654,0,0,0.0987654320987654,41.3827160493827,0)" xlink:href="#ay"/><use transform="matrix(0.0987654320987654,0,0,0.0987654320987654,61.13580246913578,0)" xlink:href="#az"/><use transform="matrix(0.0987654320987654,0,0,0.0987654320987654,72.98765432098763,0)" xlink:href="#aW"/></g><g id="w"><use transform="matrix(0.0987654320987654,0,0,0.0987654320987654,0,0)" xlink:href="#aD"/><use transform="matrix(0.0987654320987654,0,0,0.0987654320987654,21.629629629629623,0)" xlink:href="#aE"/><use transform="matrix(0.0987654320987654,0,0,0.0987654320987654,41.3827160493827,0)" xlink:href="#ao"/><use transform="matrix(0.0987654320987654,0,0,0.0987654320987654,61.13580246913578,0)" xlink:href="#ao"/><use transform="matrix(0.0987654320987654,0,0,0.0987654320987654,80.88888888888886,0)" xlink:href="#aF"/><use transform="matrix(0.0987654320987654,0,0,0.0987654320987654,108.54320987654317,0)" xlink:href="#an"/><use transform="matrix(0.0987654320987654,0,0,0.0987654320987654,130.1728395061728,0)" xlink:href="#az"/><use transform="matrix(0.0987654320987654,0,0,0.0987654320987654,143.99999999999997,0)" xlink:href="#aA"/><use transform="matrix(0.0987654320987654,0,0,0.0987654320987654,165.6296296296296,0)" xlink:href="#aW"/></g><path fill="#3a414a" d="M102-93c0 74-22 123-52 168H0C30 29 54-18 53-93c0-74-22-123-53-168h50c30 45 52 94 52 168" id="aX"/><g id="x"><use transform="matrix(0.0987654320987654,0,0,0.0987654320987654,0,0)" xlink:href="#aH"/><use transform="matrix(0.0987654320987654,0,0,0.0987654320987654,21.629629629629623,0)" xlink:href="#aE"/><use transform="matrix(0.0987654320987654,0,0,0.0987654320987654,41.3827160493827,0)" xlink:href="#aI"/><use transform="matrix(0.0987654320987654,0,0,0.0987654320987654,72.98765432098763,0)" xlink:href="#ay"/><use transform="matrix(0.0987654320987654,0,0,0.0987654320987654,92.7407407407407,0)" xlink:href="#aX"/></g><path fill="#3a414a" d="M30 0v-248h187v28H63v79h144v27H63v87h162V0H30" id="aY"/><path fill="#3a414a" d="M115-194c55 1 70 41 70 98S169 2 115 4C84 4 66-9 55-30l1 105H24l-1-265h31l2 30c10-21 28-34 59-34zm-8 174c40 0 45-34 45-75s-6-73-45-74c-42 0-51 32-51 76 0 43 10 73 51 73" id="aZ"/><path fill="#3a414a" d="M24-231v-30h32v30H24zM24 0v-190h32V0H24" id="ba"/><g id="y"><use transform="matrix(0.11111111111111108,0,0,0.11111111111111108,0,0)" xlink:href="#aY"/><use transform="matrix(0.11111111111111108,0,0,0.11111111111111108,26.666666666666657,0)" xlink:href="#ah"/><use transform="matrix(0.11111111111111108,0,0,0.11111111111111108,48.88888888888887,0)" xlink:href="#ab"/><use transform="matrix(0.11111111111111108,0,0,0.11111111111111108,71.11111111111109,0)" xlink:href="#aZ"/><use transform="matrix(0.11111111111111108,0,0,0.11111111111111108,93.3333333333333,0)" xlink:href="#Z"/><use transform="matrix(0.11111111111111108,0,0,0.11111111111111108,115.55555555555551,0)" xlink:href="#ba"/><use transform="matrix(0.11111111111111108,0,0,0.11111111111111108,124.3333333333333,0)" xlink:href="#ah"/><use transform="matrix(0.11111111111111108,0,0,0.11111111111111108,146.5555555555555,0)" xlink:href="#ae"/></g><path fill="#3a414a" d="M87 75C49 33 22-17 22-94c0-76 28-126 65-167h31c-38 41-64 92-64 168S80 34 118 75H87" id="bb"/><path fill="#3a414a" d="M96-169c-40 0-48 33-48 73s9 75 48 75c24 0 41-14 43-38l32 2c-6 37-31 61-74 61-59 0-76-41-82-99-10-93 101-131 147-64 4 7 5 14 7 22l-32 3c-4-21-16-35-41-35" id="bc"/><path fill="#3a414a" d="M106-169C34-169 62-67 57 0H25v-261h32l-1 103c12-21 28-36 61-36 89 0 53 116 60 194h-32v-121c2-32-8-49-39-48" id="bd"/><path fill="#3a414a" d="M33-154v-36h34v36H33zM33 0v-36h34V0H33" id="be"/><path fill="#3a414a" d="M134-131c28 9 52 24 51 62-1 50-34 73-85 73S17-19 16-69c0-36 21-54 49-61-75-25-45-126 34-121 46 3 78 18 79 63 0 33-17 51-44 57zm-34-11c31 1 46-15 46-44 0-28-17-43-47-42-29 0-46 13-45 42 1 28 16 44 46 44zm1 122c35 0 51-18 51-52 0-30-18-46-53-46-33 0-51 17-51 47 0 34 19 51 53 51" id="bf"/><path fill="#3a414a" d="M101-251c68 0 85 55 85 127S166 4 100 4C33 4 14-52 14-124c0-73 17-127 87-127zm-1 229c47 0 54-49 54-102s-4-102-53-102c-51 0-55 48-55 102 0 53 5 102 54 102" id="bg"/><path fill="#3a414a" d="M0 4l72-265h28L28 4H0" id="bh"/><path fill="#3a414a" d="M145-31C134-9 116 4 85 4 32 4 16-35 15-94c0-59 17-99 70-100 32-1 48 14 60 33 0-11-1-24 2-32h30l-1 268h-32zM93-21c41 0 51-33 51-76s-8-73-50-73c-40 0-46 35-46 75s5 74 45 74" id="bi"/><path fill="#3a414a" d="M33-261c38 41 65 92 65 168S71 34 33 75H2C39 34 66-17 66-93S39-220 2-261h31" id="bj"/><g id="z"><use transform="matrix(0.11111111111111108,0,0,0.11111111111111108,0,0)" xlink:href="#bb"/><use transform="matrix(0.11111111111111108,0,0,0.11111111111111108,13.222222222222218,0)" xlink:href="#Y"/><use transform="matrix(0.11111111111111108,0,0,0.11111111111111108,21.999999999999993,0)" xlink:href="#Z"/><use transform="matrix(0.11111111111111108,0,0,0.11111111111111108,44.22222222222221,0)" xlink:href="#bc"/><use transform="matrix(0.11111111111111108,0,0,0.11111111111111108,64.2222222222222,0)" xlink:href="#ad"/><use transform="matrix(0.11111111111111108,0,0,0.11111111111111108,86.44444444444441,0)" xlink:href="#Y"/><use transform="matrix(0.11111111111111108,0,0,0.11111111111111108,95.22222222222219,0)" xlink:href="#bd"/><use transform="matrix(0.11111111111111108,0,0,0.11111111111111108,117.44444444444441,0)" xlink:href="#Z"/><use transform="matrix(0.11111111111111108,0,0,0.11111111111111108,139.66666666666663,0)" xlink:href="#ai"/><use transform="matrix(0.11111111111111108,0,0,0.11111111111111108,159.66666666666663,0)" xlink:href="#ae"/><use transform="matrix(0.11111111111111108,0,0,0.11111111111111108,170.77777777777774,0)" xlink:href="#be"/><use transform="matrix(0.11111111111111108,0,0,0.11111111111111108,181.88888888888886,0)" xlink:href="#bf"/><use transform="matrix(0.11111111111111108,0,0,0.11111111111111108,204.1111111111111,0)" xlink:href="#bg"/><use transform="matrix(0.11111111111111108,0,0,0.11111111111111108,226.33333333333331,0)" xlink:href="#bg"/><use transform="matrix(0.11111111111111108,0,0,0.11111111111111108,248.55555555555554,0)" xlink:href="#bg"/><use transform="matrix(0.11111111111111108,0,0,0.11111111111111108,270.77777777777777,0)" xlink:href="#bh"/><use transform="matrix(0.11111111111111108,0,0,0.11111111111111108,281.88888888888886,0)" xlink:href="#ad"/><use transform="matrix(0.11111111111111108,0,0,0.11111111111111108,304.1111111111111,0)" xlink:href="#aZ"/><use transform="matrix(0.11111111111111108,0,0,0.11111111111111108,326.3333333333333,0)" xlink:href="#ba"/><use transform="matrix(0.11111111111111108,0,0,0.11111111111111108,335.1111111111111,0)" xlink:href="#bh"/><use transform="matrix(0.11111111111111108,0,0,0.11111111111111108,346.2222222222222,0)" xlink:href="#ai"/><use transform="matrix(0.11111111111111108,0,0,0.11111111111111108,366.2222222222222,0)" xlink:href="#bi"/><use transform="matrix(0.11111111111111108,0,0,0.11111111111111108,388.4444444444444,0)" xlink:href="#Y"/><use transform="matrix(0.11111111111111108,0,0,0.11111111111111108,397.2222222222222,0)" xlink:href="#bj"/></g><path fill="#3a414a" d="M206 0h-36l-40-164L89 0H53L-1-190h32L70-26l43-164h34l41 164 42-164h31" id="bk"/><path fill="#3a414a" d="M177-190C167-65 218 103 67 71c-23-6-38-20-44-43l32-5c15 47 100 32 89-28v-30C133-14 115 1 83 1 29 1 15-40 15-95c0-56 16-97 71-98 29-1 48 16 59 35 1-10 0-23 2-32h30zM94-22c36 0 50-32 50-73 0-42-14-75-50-75-39 0-46 34-46 75s6 73 46 73" id="bl"/><g id="A"><use transform="matrix(0.0987654320987654,0,0,0.0987654320987654,0,0)" xlink:href="#U"/><use transform="matrix(0.0987654320987654,0,0,0.0987654320987654,23.703703703703695,0)" xlink:href="#bk"/><use transform="matrix(0.0987654320987654,0,0,0.0987654320987654,49.283950617283935,0)" xlink:href="#ad"/><use transform="matrix(0.0987654320987654,0,0,0.0987654320987654,69.03703703703701,0)" xlink:href="#bl"/><use transform="matrix(0.0987654320987654,0,0,0.0987654320987654,88.79012345679008,0)" xlink:href="#bl"/><use transform="matrix(0.0987654320987654,0,0,0.0987654320987654,108.54320987654314,0)" xlink:href="#ak"/><use transform="matrix(0.0987654320987654,0,0,0.0987654320987654,128.29629629629625,0)" xlink:href="#ag"/></g><g id="B"><use transform="matrix(0.0987654320987654,0,0,0.0987654320987654,0,0)" xlink:href="#bb"/><use transform="matrix(0.0987654320987654,0,0,0.0987654320987654,11.753086419753082,0)" xlink:href="#Y"/><use transform="matrix(0.0987654320987654,0,0,0.0987654320987654,19.55555555555555,0)" xlink:href="#Z"/><use transform="matrix(0.0987654320987654,0,0,0.0987654320987654,39.30864197530863,0)" xlink:href="#bc"/><use transform="matrix(0.0987654320987654,0,0,0.0987654320987654,57.0864197530864,0)" xlink:href="#ad"/><use transform="matrix(0.0987654320987654,0,0,0.0987654320987654,76.83950617283948,0)" xlink:href="#Y"/><use transform="matrix(0.0987654320987654,0,0,0.0987654320987654,84.64197530864195,0)" xlink:href="#bd"/><use transform="matrix(0.0987654320987654,0,0,0.0987654320987654,104.39506172839502,0)" xlink:href="#Z"/><use transform="matrix(0.0987654320987654,0,0,0.0987654320987654,124.14814814814811,0)" xlink:href="#ai"/><use transform="matrix(0.0987654320987654,0,0,0.0987654320987654,141.92592592592587,0)" xlink:href="#ae"/><use transform="matrix(0.0987654320987654,0,0,0.0987654320987654,151.8024691358024,0)" xlink:href="#be"/><use transform="matrix(0.0987654320987654,0,0,0.0987654320987654,161.67901234567893,0)" xlink:href="#bf"/><use transform="matrix(0.0987654320987654,0,0,0.0987654320987654,181.43209876543202,0)" xlink:href="#bg"/><use transform="matrix(0.0987654320987654,0,0,0.0987654320987654,201.1851851851851,0)" xlink:href="#bg"/><use transform="matrix(0.0987654320987654,0,0,0.0987654320987654,220.9382716049382,0)" xlink:href="#bg"/><use transform="matrix(0.0987654320987654,0,0,0.0987654320987654,240.69135802469128,0)" xlink:href="#bh"/><use transform="matrix(0.0987654320987654,0,0,0.0987654320987654,250.5679012345678,0)" xlink:href="#ab"/><use transform="matrix(0.0987654320987654,0,0,0.0987654320987654,270.3209876543209,0)" xlink:href="#Z"/><use transform="matrix(0.0987654320987654,0,0,0.0987654320987654,290.07407407407396,0)" xlink:href="#bc"/><use transform="matrix(0.0987654320987654,0,0,0.0987654320987654,307.85185185185173,0)" xlink:href="#ai"/><use transform="matrix(0.0987654320987654,0,0,0.0987654320987654,325.6296296296295,0)" xlink:href="#bj"/></g><path fill="#3a414a" d="M233-177c-1 41-23 64-60 70L243 0h-38l-65-103H63V0H30v-248c88 3 205-21 203 71zM63-129c60-2 137 13 137-47 0-61-80-42-137-45v92" id="bm"/><g id="C"><use transform="matrix(0.08024691358024688,0,0,0.08024691358024688,0,0)" xlink:href="#bm"/><use transform="matrix(0.08024691358024688,0,0,0.08024691358024688,20.783950617283942,0)" xlink:href="#ak"/><use transform="matrix(0.08024691358024688,0,0,0.08024691358024688,36.833333333333314,0)" xlink:href="#bi"/><use transform="matrix(0.08024691358024688,0,0,0.08024691358024688,52.882716049382694,0)" xlink:href="#aa"/><use transform="matrix(0.08024691358024688,0,0,0.08024691358024688,68.93209876543207,0)" xlink:href="#ak"/><use transform="matrix(0.08024691358024688,0,0,0.08024691358024688,84.98148148148145,0)" xlink:href="#ai"/><use transform="matrix(0.08024691358024688,0,0,0.08024691358024688,99.42592592592591,0)" xlink:href="#ae"/></g><path fill="#3a414a" d="M30-248c87 1 191-15 191 75 0 78-77 80-158 76V0H30v-248zm33 125c57 0 124 11 124-50 0-59-68-47-124-48v98" id="bn"/><path fill="#3a414a" d="M140-251c81 0 123 46 123 126C263-46 219 4 140 4 59 4 17-45 17-125s42-126 123-126zm0 227c63 0 89-41 89-101s-29-99-89-99c-61 0-89 39-89 99S79-25 140-24" id="bo"/><g id="D"><use transform="matrix(0.08024691358024688,0,0,0.08024691358024688,0,0)" xlink:href="#bn"/><use transform="matrix(0.08024691358024688,0,0,0.08024691358024688,19.259259259259252,0)" xlink:href="#bo"/><use transform="matrix(0.08024691358024688,0,0,0.08024691358024688,41.72839506172838,0)" xlink:href="#U"/><use transform="matrix(0.08024691358024688,0,0,0.08024691358024688,60.98765432098763,0)" xlink:href="#af"/><use transform="matrix(0.08024691358024688,0,0,0.08024691358024688,78.56172839506169,0)" xlink:href="#bb"/><use transform="matrix(0.08024691358024688,0,0,0.08024691358024688,88.11111111111107,0)" xlink:href="#ai"/><use transform="matrix(0.08024691358024688,0,0,0.08024691358024688,102.55555555555551,0)" xlink:href="#ak"/><use transform="matrix(0.08024691358024688,0,0,0.08024691358024688,118.6049382716049,0)" xlink:href="#Y"/><use transform="matrix(0.08024691358024688,0,0,0.08024691358024688,124.9444444444444,0)" xlink:href="#ak"/><use transform="matrix(0.08024691358024688,0,0,0.08024691358024688,140.99382716049377,0)" xlink:href="#bc"/><use transform="matrix(0.08024691358024688,0,0,0.08024691358024688,155.4382716049382,0)" xlink:href="#ae"/></g><path fill="#3a414a" d="M80-196l47-18 7 23-49 13 32 44-20 13-27-46-27 45-21-12 33-44-49-13 8-23 47 19-2-53h23" id="bp"/><use transform="matrix(0.08024691358024688,0,0,0.08024691358024688,0,0)" xlink:href="#bp" id="E"/><path fill="#3a414a" d="M210-169c-67 3-38 105-44 169h-31v-121c0-29-5-50-35-48C34-165 62-65 56 0H25l-1-190h30c1 10-1 24 2 32 10-44 99-50 107 0 11-21 27-35 58-36 85-2 47 119 55 194h-31v-121c0-29-5-49-35-48" id="bq"/><g id="F"><use transform="matrix(0.08024691358024688,0,0,0.08024691358024688,0,0)" xlink:href="#aj"/><use transform="matrix(0.08024691358024688,0,0,0.08024691358024688,8.024691358024688,0)" xlink:href="#ag"/><use transform="matrix(0.08024691358024688,0,0,0.08024691358024688,17.57407407407407,0)" xlink:href="#Z"/><use transform="matrix(0.08024691358024688,0,0,0.08024691358024688,33.62345679012344,0)" xlink:href="#bq"/></g><g id="G"><use transform="matrix(0.08024691358024688,0,0,0.08024691358024688,0,0)" xlink:href="#bc"/><use transform="matrix(0.08024691358024688,0,0,0.08024691358024688,14.44444444444444,0)" xlink:href="#ad"/><use transform="matrix(0.08024691358024688,0,0,0.08024691358024688,30.493827160493815,0)" xlink:href="#ag"/><use transform="matrix(0.08024691358024688,0,0,0.08024691358024688,40.043209876543195,0)" xlink:href="#bj"/></g><g id="H"><use transform="matrix(0.08024691358024688,0,0,0.08024691358024688,0,0)" xlink:href="#bm"/><use transform="matrix(0.08024691358024688,0,0,0.08024691358024688,20.783950617283942,0)" xlink:href="#ak"/><use transform="matrix(0.08024691358024688,0,0,0.08024691358024688,36.833333333333314,0)" xlink:href="#ai"/><use transform="matrix(0.08024691358024688,0,0,0.08024691358024688,51.27777777777776,0)" xlink:href="#aZ"/><use transform="matrix(0.08024691358024688,0,0,0.08024691358024688,67.32716049382714,0)" xlink:href="#Z"/><use transform="matrix(0.08024691358024688,0,0,0.08024691358024688,83.37654320987652,0)" xlink:href="#ah"/><use transform="matrix(0.08024691358024688,0,0,0.08024691358024688,99.42592592592591,0)" xlink:href="#ai"/><use transform="matrix(0.08024691358024688,0,0,0.08024691358024688,113.87037037037034,0)" xlink:href="#ak"/></g><path fill="#3a414a" d="M153-248C145-148 188 4 80 4 36 3 13-21 6-62l32-5c4 25 16 42 43 43 27 0 39-20 39-49v-147H72v-28h81" id="br"/><path fill="#3a414a" d="M190 0L58-211 59 0H30v-248h39L202-35l-2-213h31V0h-41" id="bs"/><g id="I"><use transform="matrix(0.08024691358024688,0,0,0.08024691358024688,0,0)" xlink:href="#br"/><use transform="matrix(0.08024691358024688,0,0,0.08024691358024688,14.44444444444444,0)" xlink:href="#U"/><use transform="matrix(0.08024691358024688,0,0,0.08024691358024688,33.703703703703695,0)" xlink:href="#bo"/><use transform="matrix(0.08024691358024688,0,0,0.08024691358024688,56.172839506172814,0)" xlink:href="#bs"/></g><path fill="#3a414a" d="M39-94c74 12-11 154 75 146v23c-44 4-70-10-70-52C44-23 55-84 6-82v-22c81 4-7-162 84-157h24v23c-82-15-2 131-75 144" id="bt"/><g id="J"><use transform="matrix(0.08024691358024688,0,0,0.08024691358024688,0,0)" xlink:href="#bt"/><use transform="matrix(0.08024691358024688,0,0,0.08024691358024688,9.629629629629626,0)" xlink:href="#ac"/><use transform="matrix(0.08024691358024688,0,0,0.08024691358024688,30.41358024691357,0)" xlink:href="#ad"/><use transform="matrix(0.08024691358024688,0,0,0.08024691358024688,46.46296296296295,0)" xlink:href="#ae"/><use transform="matrix(0.08024691358024688,0,0,0.08024691358024688,54.487654320987644,0)" xlink:href="#ad"/><use transform="matrix(0.08024691358024688,0,0,0.08024691358024688,70.53703703703701,0)" xlink:href="#be"/></g><path fill="#3a414a" d="M33 0v-38h34V0H33" id="bu"/><path fill="#3a414a" d="M76-40C78 24 84 88 6 75V52C86 64 9-79 80-94c-40-6-34-59-34-106 1-29-11-41-40-38v-23c44-4 70 10 70 52 0 47-12 108 38 105v22c-26 1-39 14-38 42" id="bv"/><g id="K"><use transform="matrix(0.08024691358024688,0,0,0.08024691358024688,0,0)" xlink:href="#bt"/><use transform="matrix(0.08024691358024688,0,0,0.08024691358024688,9.629629629629626,0)" xlink:href="#bu"/><use transform="matrix(0.08024691358024688,0,0,0.08024691358024688,17.654320987654316,0)" xlink:href="#bu"/><use transform="matrix(0.08024691358024688,0,0,0.08024691358024688,25.679012345679006,0)" xlink:href="#bu"/><use transform="matrix(0.08024691358024688,0,0,0.08024691358024688,33.703703703703695,0)" xlink:href="#bv"/><use transform="matrix(0.08024691358024688,0,0,0.08024691358024688,43.33333333333333,0)" xlink:href="#bv"/></g><path fill="#3a414a" d="M24-231v-30h32v30H24zM-9 49c24 4 33-6 33-30v-209h32V24c2 40-23 58-65 49V49" id="bw"/><g id="L"><use transform="matrix(0.12345679012345674,0,0,0.12345679012345674,0,0)" xlink:href="#bq"/><use transform="matrix(0.12345679012345674,0,0,0.12345679012345674,36.91358024691357,0)" xlink:href="#ad"/><use transform="matrix(0.12345679012345674,0,0,0.12345679012345674,61.604938271604915,0)" xlink:href="#ba"/><use transform="matrix(0.12345679012345674,0,0,0.12345679012345674,71.358024691358,0)" xlink:href="#ah"/><use transform="matrix(0.12345679012345674,0,0,0.12345679012345674,96.04938271604934,0)" xlink:href="#bu"/><use transform="matrix(0.12345679012345674,0,0,0.12345679012345674,108.395061728395,0)" xlink:href="#bw"/><use transform="matrix(0.12345679012345674,0,0,0.12345679012345674,118.1481481481481,0)" xlink:href="#ai"/></g><g id="M"><use transform="matrix(0.0987654320987654,0,0,0.0987654320987654,0,0)" xlink:href="#aj"/><use transform="matrix(0.0987654320987654,0,0,0.0987654320987654,9.876543209876539,0)" xlink:href="#ak"/><use transform="matrix(0.0987654320987654,0,0,0.0987654320987654,29.62962962962962,0)" xlink:href="#ae"/><use transform="matrix(0.0987654320987654,0,0,0.0987654320987654,39.506172839506156,0)" xlink:href="#bc"/><use transform="matrix(0.0987654320987654,0,0,0.0987654320987654,57.28395061728393,0)" xlink:href="#bd"/><use transform="matrix(0.0987654320987654,0,0,0.0987654320987654,77.03703703703701,0)" xlink:href="#bb"/><use transform="matrix(0.0987654320987654,0,0,0.0987654320987654,88.7901234567901,0)" xlink:href="#bj"/><use transform="matrix(0.0987654320987654,0,0,0.0987654320987654,100.54320987654319,0)" xlink:href="#bt"/></g><path fill="#3a414a" d="M68-36c1 33-1 63-14 82H32c9-13 17-26 17-46H33v-36h35zM33-154v-36h35v36H33" id="bx"/><g id="N"><use transform="matrix(0.0987654320987654,0,0,0.0987654320987654,0,0)" xlink:href="#bv"/><use transform="matrix(0.0987654320987654,0,0,0.0987654320987654,11.851851851851848,0)" xlink:href="#bx"/></g><path fill="#3a414a" d="M141 0L90-78 38 0H4l68-98-65-92h35l48 74 47-74h35l-64 92 68 98h-35" id="by"/><g id="O"><use transform="matrix(0.191358024691358,0,0,0.191358024691358,0,0)" xlink:href="#ba"/><use transform="matrix(0.191358024691358,0,0,0.191358024691358,15.117283950617281,0)" xlink:href="#ah"/><use transform="matrix(0.191358024691358,0,0,0.191358024691358,53.388888888888864,0)" xlink:href="#ab"/><use transform="matrix(0.191358024691358,0,0,0.191358024691358,91.66049382716047,0)" xlink:href="#ak"/><use transform="matrix(0.191358024691358,0,0,0.191358024691358,129.93209876543204,0)" xlink:href="#by"/><use transform="matrix(0.191358024691358,0,0,0.191358024691358,164.37654320987647,0)" xlink:href="#bu"/><use transform="matrix(0.191358024691358,0,0,0.191358024691358,183.51234567901227,0)" xlink:href="#bd"/><use transform="matrix(0.191358024691358,0,0,0.191358024691358,221.78395061728386,0)" xlink:href="#ae"/><use transform="matrix(0.191358024691358,0,0,0.191358024691358,240.91975308641966,0)" xlink:href="#bq"/><use transform="matrix(0.191358024691358,0,0,0.191358024691358,298.1358024691357,0)" xlink:href="#Y"/></g><path fill="#3a414a" d="M115-194c53 0 69 39 70 98 0 66-23 100-70 100C84 3 66-7 56-30L54 0H23l1-261h32v101c10-23 28-34 59-34zm-8 174c40 0 45-34 45-75 0-40-5-75-45-74-42 0-51 32-51 76 0 43 10 73 51 73" id="bz"/><path fill="#3a414a" d="M197 0v-115H63V0H30v-248h33v105h134v-105h34V0h-34" id="bA"/><g id="P"><use transform="matrix(0.0987654320987654,0,0,0.0987654320987654,0,0)" xlink:href="#ae"/><use transform="matrix(0.0987654320987654,0,0,0.0987654320987654,9.876543209876539,0)" xlink:href="#ad"/><use transform="matrix(0.0987654320987654,0,0,0.0987654320987654,29.62962962962962,0)" xlink:href="#bz"/><use transform="matrix(0.0987654320987654,0,0,0.0987654320987654,49.382716049382694,0)" xlink:href="#Y"/><use transform="matrix(0.0987654320987654,0,0,0.0987654320987654,57.18518518518517,0)" xlink:href="#ak"/><use transform="matrix(0.0987654320987654,0,0,0.0987654320987654,76.93827160493824,0)" xlink:href="#bu"/><use transform="matrix(0.0987654320987654,0,0,0.0987654320987654,86.81481481481478,0)" xlink:href="#ba"/><use transform="matrix(0.0987654320987654,0,0,0.0987654320987654,94.61728395061725,0)" xlink:href="#ah"/><use transform="matrix(0.0987654320987654,0,0,0.0987654320987654,114.37037037037034,0)" xlink:href="#ah"/><use transform="matrix(0.0987654320987654,0,0,0.0987654320987654,134.1234567901234,0)" xlink:href="#ak"/><use transform="matrix(0.0987654320987654,0,0,0.0987654320987654,153.8765432098765,0)" xlink:href="#ag"/><use transform="matrix(0.0987654320987654,0,0,0.0987654320987654,165.6296296296296,0)" xlink:href="#bA"/><use transform="matrix(0.0987654320987654,0,0,0.0987654320987654,191.20987654320982,0)" xlink:href="#af"/><use transform="matrix(0.0987654320987654,0,0,0.0987654320987654,212.83950617283944,0)" xlink:href="#S"/><use transform="matrix(0.0987654320987654,0,0,0.0987654320987654,242.3703703703703,0)" xlink:href="#W"/><path fill="#8080ff" d="M-1.78 2.47H263.9v2.6H-1.78z"/></g><path fill="#3a414a" d="M18-150v-26h174v26H18zm0 90v-26h174v26H18" id="bB"/><use transform="matrix(0.0987654320987654,0,0,0.0987654320987654,0,0)" xlink:href="#bB" id="Q"/><g id="R"><use transform="matrix(0.0987654320987654,0,0,0.0987654320987654,0,0)" xlink:href="#ab"/><use transform="matrix(0.0987654320987654,0,0,0.0987654320987654,19.753086419753078,0)" xlink:href="#ad"/><use transform="matrix(0.0987654320987654,0,0,0.0987654320987654,39.506172839506156,0)" xlink:href="#ae"/><use transform="matrix(0.0987654320987654,0,0,0.0987654320987654,49.382716049382694,0)" xlink:href="#ad"/></g></defs></g></svg>